<svg viewBox="0 0 69.812187 87.373886" xmlns="http://www.w3.org/2000/svg">
  <path d="m 9.26041,24.899959 c 0.51885,1.068652 1.3126,1.906588 2.38125,2.513542 15.52231,0.176477 31.04436,0.176477 46.56667,0 1.18904,-0.495035 1.98279,-1.332971 2.38125,-2.513542 0.26405,-8.156839 0.35216,-16.3589232 0.26458,-24.60625017 0.61727,0 1.23481,0 1.85208,0 1.91109,0.411612 3.1459,1.55813097 3.70417,3.43958297 0.0466,0.853811 0.22304,1.647561 0.52917,2.38125 0,0.08811 0,0.176477 0,0.264584 -0.34502,1.779058 -0.25691,3.543035 0.26458,5.2916662 0,0.08811 0,0.176477 0,0.264584 -0.17595,0.744537 -0.26405,1.538287 -0.26458,2.38125 0.10557,2.779977 0.28204,5.514181 0.52916,8.202083 0.15664,0.695061 0.24474,1.400705 0.26459,2.116667 -0.21855,3.571611 -0.21855,7.187671 0,10.847917 -21.87231,0 -43.74436,0 -65.61667,0 0.0751,-0.506677 -0.013,-0.947473 -0.26458,-1.322917 0.013,-1.944423 0.10107,-3.884877 0.26458,-5.820833 0.47017,-2.903802 0.55827,-5.814219 0.26459,-8.73125 0,-0.705644 0,-1.411023 0,-2.116667 0.16324,-0.02937 0.29554,-0.117475 0.39687,-0.264584 C 2.96465,13.083138 3.09694,8.9379108 3.175,4.7916248 3.3401,2.6926858 4.39843,1.2815308 6.35,0.55829183 7.22497,0.41255983 8.10683,0.32437383 8.99583,0.29370883 8.90823,8.5410358 8.99636,16.74312 9.26041,24.899959 Z M 35.71875,13.522876 c -0.52917,0 -1.05834,0 -1.5875,0 0,-1.499394 0,-2.998523 0,-4.4979172 0.52916,0 1.05833,0 1.5875,0 0,1.4993942 0,2.9985232 0,4.4979172 z m -3.43959,-1.058334 c -0.372,0.125148 -0.54848,0.389732 -0.52916,0.79375 -0.99907,2.248694 -0.38153,3.968486 1.85208,5.159376 3.59913,0.517789 5.23055,-1.025525 4.89479,-4.630209 -0.20955,-0.552185 -0.51832,-1.037431 -0.92604,-1.455208 0.41804,-0.607219 0.94721,-0.959909 1.5875,-1.058334 1.63989,2.278857 1.72799,4.615921 0.26458,7.011459 -0.372,0.125148 -0.54848,0.389731 -0.52916,0.79375 -2.55641,1.748896 -5.11414,1.748896 -7.67292,0 -0.17648,-0.35269 -0.44106,-0.617273 -0.79375,-0.79375 -1.54702,-2.524125 -1.37054,-4.905375 0.52917,-7.14375 0.53472,0.35851 0.97578,0.799306 1.32291,1.322916 z m 25.66458,11.641667 c 0.0193,0.404019 -0.15716,0.668602 -0.52916,0.79375 -15.09236,0.08599 -30.17361,-0.0021 -45.24375,-0.264583 -0.22172,-0.09049 -0.31009,-0.2667 -0.26458,-0.529167 0,-7.9375 0,-15.8750002 0,-23.81250017 15.34583,0 30.69166,0 46.03749,0 0,7.93749997 0,15.87500017 0,23.81250017 z M 35.71875,13.522876 c -0.52917,0 -1.05834,0 -1.5875,0 0,-1.499394 0,-2.998523 0,-4.4979172 0.52916,0 1.05833,0 1.5875,0 0,1.4993942 0,2.9985232 0,4.4979172 z m -3.43959,-1.058334 c -0.372,0.125148 -0.54848,0.389732 -0.52916,0.79375 -0.99907,2.248694 -0.38153,3.968486 1.85208,5.159376 3.59913,0.517789 5.23055,-1.025525 4.89479,-4.630209 -0.20955,-0.552185 -0.51832,-1.037431 -0.92604,-1.455208 0.41804,-0.607219 0.94721,-0.959909 1.5875,-1.058334 1.63989,2.278857 1.72799,4.615921 0.26458,7.011459 -0.372,0.125148 -0.54848,0.389731 -0.52916,0.79375 -2.55641,1.748896 -5.11414,1.748896 -7.67292,0 -0.17648,-0.35269 -0.44106,-0.617273 -0.79375,-0.79375 -1.54702,-2.524125 -1.37054,-4.905375 0.52917,-7.14375 0.53472,0.35851 0.97578,0.799306 1.32291,1.322916 z M 62.70624,0.29370883 c -0.61727,0 -1.23481,0 -1.85208,0 0.0876,8.24732697 -5.3e-4,16.44941117 -0.26458,24.60625017 0,-8.290189 0,-16.5806442 0,-24.87083417 0.76332,-0.08107 1.46896,0.0071 2.11666,0.264584 z M 9.26041,24.899959 C 8.99636,16.74312 8.90825,8.5410358 8.99583,0.29370883 c -0.889,0.03067 -1.77086,0.118851 -2.64583,0.264583 0.88503,-0.45429 1.85499,-0.630661 2.91041,-0.529167 0,8.29018997 0,16.58064517 0,24.87083417 z m 48.68333,-0.79375 c 0,-7.9375 0,-15.8750002 0,-23.81250017 -15.34583,0 -30.69166,0 -46.03749,0 0,7.93749997 0,15.87500017 0,23.81250017 -0.26406,-7.980362 -0.35216,-16.0059692 -0.26459,-24.07708417 15.52231,0 31.04436,0 46.56667,0 C 58.29593,8.1002398 58.2078,16.125847 57.94374,24.106209 Z M 35.71875,13.522876 c -0.52917,0 -1.05834,0 -1.5875,0 0,-1.499394 0,-2.998523 0,-4.4979172 0.52916,0 1.05833,0 1.5875,0 0,1.4993942 0,2.9985232 0,4.4979172 z m -3.43959,-1.058334 c -0.372,0.125148 -0.54848,0.389732 -0.52916,0.79375 -0.99907,2.248694 -0.38153,3.968486 1.85208,5.159376 3.59913,0.517789 5.23055,-1.025525 4.89479,-4.630209 -0.20955,-0.552185 -0.51832,-1.037431 -0.92604,-1.455208 0.41804,-0.607219 0.94721,-0.959909 1.5875,-1.058334 1.63989,2.278857 1.72799,4.615921 0.26458,7.011459 -0.372,0.125148 -0.54848,0.389731 -0.52916,0.79375 -2.55641,1.748896 -5.11414,1.748896 -7.67292,0 -0.17648,-0.35269 -0.44106,-0.617273 -0.79375,-0.79375 -1.54702,-2.524125 -1.37054,-4.905375 0.52917,-7.14375 0.53472,0.35851 0.97578,0.799306 1.32291,1.322916 z M 66.41041,3.7332918 c 0.4281,0.706702 0.60457,1.500452 0.52917,2.38125 -0.30613,-0.733689 -0.4826,-1.527439 -0.52917,-2.38125 z m 0.52917,2.645834 c 0.0296,1.767416 0.118,3.531393 0.26458,5.2916662 C 66.68267,9.9221608 66.59456,8.1581838 66.93958,6.3791258 Z M 35.71875,13.522876 c 0,-1.499394 0,-2.998523 0,-4.4979172 -0.52917,0 -1.05834,0 -1.5875,0 0,1.4993942 0,2.9985232 0,4.4979172 -0.26194,-1.537229 -0.35005,-3.12473 -0.26459,-4.7625002 0.70565,0 1.41102,0 2.11667,0 0.0855,1.6377702 -0.003,3.2252712 -0.26458,4.7625002 z m 0,0 c -0.52917,0 -1.05834,0 -1.5875,0 0,-1.499394 0,-2.998523 0,-4.4979172 0.52916,0 1.05833,0 1.5875,0 0,1.4993942 0,2.9985232 0,4.4979172 z M 3.175,4.7916248 C 3.0969,8.9379108 2.96465,13.083138 2.77812,17.227042 2.67679,17.374151 2.54449,17.462257 2.38125,17.491626 2.59212,13.22178 2.8567,8.9884458 3.175,4.7916248 Z m 29.10416,7.6729172 c 0.0193,0.404019 -0.15716,0.668602 -0.52916,0.79375 -0.0193,-0.404018 0.15716,-0.668602 0.52916,-0.79375 z m 7.14375,5.820834 c 0.0193,0.404019 -0.15716,0.668602 -0.52916,0.79375 -0.0193,-0.404019 0.15716,-0.668602 0.52916,-0.79375 z m -8.99583,0 c 0.35269,0.176477 0.61727,0.44106 0.79375,0.79375 -0.52917,0 -0.79375,-0.264583 -0.79375,-0.79375 z m 36.77708,-6.35 c 0.13414,3.526366 0.22225,7.054056 0.26458,10.583333 -0.24712,-2.687902 -0.42359,-5.422106 -0.52916,-8.202083 5.3e-4,-0.842963 0.0886,-1.636713 0.26458,-2.38125 z m -55.03333,12.7 c 15.07014,0.262467 30.15139,0.350573 45.24375,0.264583 -14.9487,0.30824 -29.94157,0.352425 -44.97917,0.132292 C 12.2883,24.930916 12.2002,24.798624 12.17083,24.635376 Z M 2.38125,19.608293 c 0.29368,2.917031 0.20558,5.827448 -0.26459,8.73125 0.0778,-2.910682 0.16616,-5.821098 0.26459,-8.73125 z m 65.35208,5.027083 c 0.0799,3.616325 0.16801,7.232121 0.26458,10.847917 -0.0881,0 -0.17648,0 -0.26458,0 -0.21855,-3.660246 -0.21855,-7.276306 0,-10.847917 z m -65.88125,9.525 c 0.25162,0.375444 0.33972,0.81624 0.26458,1.322917 21.87231,0 43.74436,0 65.61667,0 0.0881,0 0.17647,0 0.26458,0 -22.00407,0.264319 -44.05259,0.35269 -66.14583,0.264583 0,-0.529166 0,-1.058333 0,-1.5875 z m 26.19375,4.233334 c -0.0881,0 -0.17648,0 -0.26458,0 -8.64315,0 -17.28603,0 -25.92917,0 0.0709,0.423069 -0.0175,0.775758 -0.26458,1.058333 0,-0.44106 0,-0.881856 0,-1.322917 8.8646,-0.08784 17.68422,5.3e-4 26.45833,0.264584 z m 40.21666,2.38125 c -0.25849,-0.737394 -0.3466,-1.531144 -0.26458,-2.38125 -8.64314,0 -17.28602,0 -25.92916,0 0.0878,10.01104 -5.3e-4,19.9771 -0.26459,29.897917 0,-10.054167 0,-20.108334 0,-30.162501 8.81936,0 17.63898,0 26.45833,0 0,0.881857 0,1.763978 0,2.645834 z M 27.78125,38.39371 c -0.0442,10.054431 0,20.108598 0.13229,30.162501 0.0635,0.6223 0.28389,1.151466 0.66146,1.5875 2.68208,4.185444 6.20977,5.067564 10.58333,2.645833 0.70564,-0.176477 1.14644,-0.617273 1.32292,-1.322917 0.20187,-0.494241 0.46646,-0.935302 0.79375,-1.322916 0.44,-0.512763 0.61621,-1.1303 0.52916,-1.852084 0.26406,-9.920817 0.35243,-19.886877 0.26459,-29.897917 8.64314,0 17.28602,0 25.92916,0 -0.082,0.850106 0.006,1.643856 0.26458,2.38125 0,0.08811 0,0.176477 0,0.264583 -0.30294,1.008327 -0.34713,2.066661 -0.13229,3.175 0.10134,0.147109 0.23363,0.235215 0.39688,0.264584 0,0.08811 0,0.176477 0,0.264583 -0.30586,1.981465 -0.34978,4.00976 -0.13229,6.085417 0.0614,0.327289 0.19367,0.591873 0.39687,0.79375 0.20347,6.525683 0.37994,13.051896 0.52917,19.579167 0.0823,3.362325 0.0823,6.713799 0,10.054169 -0.821,3.20225 -2.84956,5.1427 -6.08542,5.82083 -2.73394,0 -5.46814,0 -8.20208,0 0.0709,-0.42307 -0.0175,-0.77576 -0.26459,-1.05833 -0.3048,-0.8771 -0.92207,-1.45045 -1.85208,-1.71979 -11.99435,-0.17648 -23.98898,-0.17648 -35.98333,0 -0.93001,0.26934 -1.54728,0.84269 -1.85208,1.71979 -0.24713,0.28257 -0.3355,0.63526 -0.26459,1.05833 -3.00672,0.0643 -6.00551,-0.0238 -8.99583,-0.26458 -0.54319,0.0259 -0.98425,-0.15055 -1.32292,-0.52917 -0.12515,-0.372 -0.38973,-0.54848 -0.79375,-0.52917 -1.66661,-1.05251 -2.72494,-2.5519 -3.175,-4.49791 0.14711,-5.336913 0.14711,-10.628579 0,-15.875002 C 0.70352,64.599367 0.79163,63.805617 0.79375,62.99996 1.26047,56.080312 1.61343,49.112775 1.85208,42.097877 1.85155,41.254914 1.76348,40.461164 1.5875,39.716626 c 0,-0.08811 0,-0.176477 0,-0.264583 0.24712,-0.282575 0.33549,-0.635264 0.26458,-1.058333 8.64314,0 17.28602,0 25.92917,0 z m 11.37708,0 c -0.0881,0 -0.17648,0 -0.26458,0 -2.64584,0 -5.29167,0 -7.9375,0 0,10.054167 0,20.108334 0,30.162501 -0.26432,-10.097294 -0.35243,-20.239568 -0.26459,-30.427085 2.86967,-0.08678 5.69198,0.0016 8.46667,0.264584 z m -0.26458,0 c 0.0836,10.326952 -0.005,20.645702 -0.26459,30.956251 -0.5379,1.284552 -1.50786,1.990196 -2.91041,2.116666 -0.79852,-0.05398 -1.59227,-0.142081 -2.38125,-0.264583 -1.35308,-0.382852 -2.14683,-1.264708 -2.38125,-2.645833 0,-10.054167 0,-20.108334 0,-30.162501 2.64583,0 5.29166,0 7.9375,0 z m -11.1125,0 c 0.0881,0 0.17647,0 0.26458,0 -0.0442,9.966325 0,19.932386 0.13229,29.897917 0.17515,0.611982 0.30745,1.229254 0.39688,1.852084 -0.37757,-0.436034 -0.59796,-0.9652 -0.66146,-1.5875 C 27.78125,58.502308 27.73706,48.448141 27.78125,38.39371 Z m 11.1125,0 c 0.0881,0 0.17647,0 0.26458,0 0.0442,10.142802 0,20.285075 -0.13229,30.427084 -0.0736,0.242358 -0.20585,0.418571 -0.39688,0.529167 0.25982,-10.310549 0.34819,-20.629299 0.26459,-30.956251 z m 29.36874,2.645833 c -0.0545,1.163638 0.0336,2.310342 0.26459,3.439584 -0.16325,-0.02937 -0.29554,-0.117475 -0.39688,-0.264584 -0.21484,-1.108339 -0.17065,-2.166673 0.13229,-3.175 z m 0.26459,3.704167 c -0.0558,2.301875 0.0325,4.595019 0.26458,6.879167 C 68.58846,51.421 68.45617,51.156416 68.39479,50.829127 68.1773,48.75347 68.22122,46.725175 68.52708,44.74371 Z M 1.5875,39.716626 c 0.17594,0.744538 0.26405,1.538288 0.26458,2.381251 C 1.61343,49.112775 1.26047,56.080312 0.79375,62.99996 1.04431,55.238408 1.30889,47.47712 1.5875,39.716626 Z M 0.52916,65.381211 c 0.14711,5.246423 0.14711,10.538089 0,15.875002 -0.19103,-0.1106 -0.32332,-0.28681 -0.39687,-0.52917 C 0.08809,79.801003 0.04419,78.874963 0,77.948923 0.35613,73.766915 0.5326,69.577767 0.52916,65.381211 Z m 41.275,2.910416 c 0.087,0.721784 -0.0892,1.339321 -0.52916,1.852084 0.0585,-0.679186 0.23495,-1.296723 0.52916,-1.852084 z m -8.46666,2.910417 c 0.78898,0.122502 1.58273,0.210608 2.38125,0.264583 -0.82736,0.347927 -1.62111,0.259821 -2.38125,-0.264583 z m 7.14375,0.264583 c -0.17648,0.705644 -0.61728,1.14644 -1.32292,1.322917 0.35269,-0.529167 0.79375,-0.970227 1.32292,-1.322917 z m 28.83958,-0.264583 c 0.47122,3.121554 0.60351,6.296559 0.39687,9.524999 -0.0736,0.24236 -0.20584,0.41857 -0.39687,0.52917 0.0823,-3.34037 0.0823,-6.691844 0,-10.054169 z M 3.70416,85.754123 c 0.40402,-0.0193 0.6686,0.15717 0.79375,0.52917 -0.40402,0.0193 -0.6686,-0.15716 -0.79375,-0.52917 z m 11.37709,0.26459 c 0,0.44106 0,0.88185 0,1.32291 -2.82364,0.0442 -5.64595,0 -8.46667,-0.13229 -0.32729,-0.0614 -0.59187,-0.19367 -0.79375,-0.39687 2.99032,0.24077 5.98911,0.32888 8.99583,0.26458 -0.0709,-0.42307 0.0175,-0.77576 0.26459,-1.05833 z m 39.68749,0 c 0.24713,0.28257 0.3355,0.63526 0.26459,1.05833 2.73394,0 5.46814,0 8.20208,0 -2.77468,0.263 -5.59699,0.35137 -8.46667,0.26458 0,-0.44106 0,-0.88185 0,-1.32291 z  " />
</svg>