<svg viewBox="" xmlns="http://www.w3.org/2000/svg">
  <path d="M0,0 L146,0 L146,166 L0,166 Z M11,1 Z M134,1 Z M6,6 Z M15,6 L15,7 L131,7 L131,6 Z M139,6 Z M13,7 Z M132,7 Z M12,8 Z M133,8 Z M5,10 L5,15 L6,15 L6,10 Z M140,10 L140,15 L141,15 L141,10 Z M11,11 L11,17 L12,17 L12,11 Z M134,11 L134,17 L135,17 L135,11 Z M52,18 Z M93,18 Z M49,19 Z M96,19 Z M47,20 Z M98,20 Z M42,25 Z M103,25 Z M40,29 Z M105,29 Z M4,33 L4,39 L5,39 L5,33 Z M141,33 L141,39 L142,39 L142,33 Z M10,35 L10,41 L11,41 L11,35 Z M135,35 L135,41 L136,41 L136,35 Z M71,56 L71,64 L72,64 L72,56 Z M74,56 L74,64 L75,64 L75,56 Z M3,57 L3,63 L4,63 L4,57 Z M142,57 L142,63 L143,63 L143,57 Z M9,59 L9,65 L10,65 L10,59 Z M136,59 L136,65 L137,65 L137,59 Z M65,60 Z M80,60 Z M64,61 Z M81,61 Z M67,62 Z M78,62 Z M63,63 Z M82,63 Z M66,64 Z M79,64 Z M66,70 Z M79,70 Z M63,71 Z M82,71 Z M69,73 Z M76,73 Z M65,74 Z M72,74 Z M80,74 Z M68,76 Z M77,76 Z M71,77 L75,78 Z M2,81 L2,87 L3,87 L3,81 Z M14,81 L14,82 L19,82 L19,81 Z M127,81 L127,82 L132,82 L132,81 Z M143,81 L143,87 L144,87 L144,81 Z M39,82 Z M106,82 Z M8,87 L9,89 Z M13,87 L13,88 L18,88 L18,87 Z M128,87 L128,88 L133,88 L133,87 Z M137,87 L138,89 Z M36,88 L40,89 Z M106,88 L110,89 Z M65,89 L65,139 L66,139 L66,89 Z M80,89 L80,139 L81,139 L81,89 Z M1,105 L1,111 L2,111 L2,105 Z M144,105 L144,111 L145,111 L145,105 Z M7,107 L7,113 L8,113 L8,107 Z M138,107 L138,113 L139,113 L139,107 Z M40,109 Z M105,109 Z M41,112 Z M104,112 Z M43,115 Z M102,115 Z M44,116 Z M101,116 Z M45,117 Z M100,117 Z M48,119 Z M97,119 Z M50,120 Z M95,120 Z M59,121 L59,140 L60,140 L60,121 Z M86,121 L86,140 L87,140 L87,121 Z M6,131 L6,136 L7,136 L7,131 Z M139,131 L139,136 L140,136 L140,131 Z M16,140 L16,141 L21,141 L21,140 Z M125,140 L125,141 L130,141 L130,140 Z M1,141 L2,143 Z M43,141 L43,142 L60,142 L60,141 Z M66,141 Z M79,141 Z M86,141 L86,142 L103,142 L103,141 Z M144,141 L145,143 Z M69,144 Z M76,144 Z M2,145 Z M143,145 Z M15,146 L15,147 L20,147 L20,146 Z M126,146 L126,147 L131,147 L131,146 Z M3,147 Z M10,147 Z M41,147 L41,148 L54,148 L54,147 Z M92,147 L92,148 L106,148 L106,147 Z M135,147 Z M142,147 Z M64,148 Z M81,148 Z M4,149 Z M141,149 Z M12,150 Z M68,150 Z M77,150 Z M133,150 Z M13,151 Z M132,151 Z M6,152 Z M14,152 Z M131,152 Z M139,152 Z M15,153 Z M130,153 Z M18,155 Z M127,155 Z M22,157 Z M123,157 Z M24,158 Z M121,158 Z M13,159 Z M29,159 L29,160 L117,160 L117,159 Z M132,159 Z M16,161 Z M129,161 Z M18,162 Z M127,162 Z M20,163 Z M125,163 Z M23,164 Z M122,164 Z  " />
</svg>