<svg viewBox="" xmlns="http://www.w3.org/2000/svg">
  <path d="M 158.5,184.5 C 160.461,188.539 163.461,191.706 167.5,194C 226.167,194.667 284.833,194.667 343.5,194C 347.994,192.129 350.994,188.962 352.5,184.5C 353.498,153.671 353.831,122.671 353.5,91.5C 355.833,91.5 358.167,91.5 360.5,91.5C 367.723,93.0557 372.39,97.389 374.5,104.5C 374.676,107.727 375.343,110.727 376.5,113.5C 376.5,113.833 376.5,114.167 376.5,114.5C 375.196,121.224 375.529,127.891 377.5,134.5C 377.5,134.833 377.5,135.167 377.5,135.5C 376.835,138.314 376.502,141.314 376.5,144.5C 376.899,155.007 377.566,165.341 378.5,175.5C 379.092,178.127 379.425,180.794 379.5,183.5C 378.674,196.999 378.674,210.666 379.5,224.5C 296.833,224.5 214.167,224.5 131.5,224.5C 131.784,222.585 131.451,220.919 130.5,219.5C 130.549,212.151 130.882,204.817 131.5,197.5C 133.277,186.525 133.61,175.525 132.5,164.5C 132.5,161.833 132.5,159.167 132.5,156.5C 133.117,156.389 133.617,156.056 134,155.5C 134.705,139.838 135.205,124.171 135.5,108.5C 136.124,100.567 140.124,95.2335 147.5,92.5C 150.807,91.9492 154.14,91.6159 157.5,91.5C 157.169,122.671 157.502,153.671 158.5,184.5 Z M 258.5,141.5 C 256.5,141.5 254.5,141.5 252.5,141.5C 252.5,135.833 252.5,130.167 252.5,124.5C 254.5,124.5 256.5,124.5 258.5,124.5C 258.5,130.167 258.5,135.833 258.5,141.5 Z M 245.5,137.5 C 244.094,137.973 243.427,138.973 243.5,140.5C 239.724,148.999 242.058,155.499 250.5,160C 264.103,161.957 270.269,156.124 269,142.5C 268.208,140.413 267.041,138.579 265.5,137C 267.08,134.705 269.08,133.372 271.5,133C 277.698,141.613 278.031,150.446 272.5,159.5C 271.094,159.973 270.427,160.973 270.5,162.5C 260.838,169.11 251.171,169.11 241.5,162.5C 240.833,161.167 239.833,160.167 238.5,159.5C 232.653,149.96 233.32,140.96 240.5,132.5C 242.521,133.855 244.188,135.521 245.5,137.5 Z M 342.5,181.5 C 342.573,183.027 341.906,184.027 340.5,184.5C 283.458,184.825 226.458,184.492 169.5,183.5C 168.662,183.158 168.328,182.492 168.5,181.5C 168.5,151.5 168.5,121.5 168.5,91.5C 226.5,91.5 284.5,91.5 342.5,91.5C 342.5,121.5 342.5,151.5 342.5,181.5 Z M 258.5,141.5 C 256.5,141.5 254.5,141.5 252.5,141.5C 252.5,135.833 252.5,130.167 252.5,124.5C 254.5,124.5 256.5,124.5 258.5,124.5C 258.5,130.167 258.5,135.833 258.5,141.5 Z M 245.5,137.5 C 244.094,137.973 243.427,138.973 243.5,140.5C 239.724,148.999 242.058,155.499 250.5,160C 264.103,161.957 270.269,156.124 269,142.5C 268.208,140.413 267.041,138.579 265.5,137C 267.08,134.705 269.08,133.372 271.5,133C 277.698,141.613 278.031,150.446 272.5,159.5C 271.094,159.973 270.427,160.973 270.5,162.5C 260.838,169.11 251.171,169.11 241.5,162.5C 240.833,161.167 239.833,160.167 238.5,159.5C 232.653,149.96 233.32,140.96 240.5,132.5C 242.521,133.855 244.188,135.521 245.5,137.5 Z M 360.5,91.5 C 358.167,91.5 355.833,91.5 353.5,91.5C 353.831,122.671 353.498,153.671 352.5,184.5C 352.5,153.167 352.5,121.833 352.5,90.5C 355.385,90.1936 358.052,90.5269 360.5,91.5 Z M 158.5,184.5 C 157.502,153.671 157.169,122.671 157.5,91.5C 154.14,91.6159 150.807,91.9492 147.5,92.5C 150.845,90.783 154.511,90.1164 158.5,90.5C 158.5,121.833 158.5,153.167 158.5,184.5 Z M 342.5,181.5 C 342.5,151.5 342.5,121.5 342.5,91.5C 284.5,91.5 226.5,91.5 168.5,91.5C 168.5,121.5 168.5,151.5 168.5,181.5C 167.502,151.338 167.169,121.005 167.5,90.5C 226.167,90.5 284.833,90.5 343.5,90.5C 343.831,121.005 343.498,151.338 342.5,181.5 Z M 258.5,141.5 C 256.5,141.5 254.5,141.5 252.5,141.5C 252.5,135.833 252.5,130.167 252.5,124.5C 254.5,124.5 256.5,124.5 258.5,124.5C 258.5,130.167 258.5,135.833 258.5,141.5 Z M 245.5,137.5 C 244.094,137.973 243.427,138.973 243.5,140.5C 239.724,148.999 242.058,155.499 250.5,160C 264.103,161.957 270.269,156.124 269,142.5C 268.208,140.413 267.041,138.579 265.5,137C 267.08,134.705 269.08,133.372 271.5,133C 277.698,141.613 278.031,150.446 272.5,159.5C 271.094,159.973 270.427,160.973 270.5,162.5C 260.838,169.11 251.171,169.11 241.5,162.5C 240.833,161.167 239.833,160.167 238.5,159.5C 232.653,149.96 233.32,140.96 240.5,132.5C 242.521,133.855 244.188,135.521 245.5,137.5 Z M 374.5,104.5 C 376.118,107.171 376.785,110.171 376.5,113.5C 375.343,110.727 374.676,107.727 374.5,104.5 Z M 376.5,114.5 C 376.612,121.18 376.946,127.847 377.5,134.5C 375.529,127.891 375.196,121.224 376.5,114.5 Z M 258.5,141.5 C 258.5,135.833 258.5,130.167 258.5,124.5C 256.5,124.5 254.5,124.5 252.5,124.5C 252.5,130.167 252.5,135.833 252.5,141.5C 251.51,135.69 251.177,129.69 251.5,123.5C 254.167,123.5 256.833,123.5 259.5,123.5C 259.823,129.69 259.49,135.69 258.5,141.5 Z M 258.5,141.5 C 256.5,141.5 254.5,141.5 252.5,141.5C 252.5,135.833 252.5,130.167 252.5,124.5C 254.5,124.5 256.5,124.5 258.5,124.5C 258.5,130.167 258.5,135.833 258.5,141.5 Z M 135.5,108.5 C 135.205,124.171 134.705,139.838 134,155.5C 133.617,156.056 133.117,156.389 132.5,156.5C 133.297,140.362 134.297,124.362 135.5,108.5 Z M 245.5,137.5 C 245.573,139.027 244.906,140.027 243.5,140.5C 243.427,138.973 244.094,137.973 245.5,137.5 Z M 272.5,159.5 C 272.573,161.027 271.906,162.027 270.5,162.5C 270.427,160.973 271.094,159.973 272.5,159.5 Z M 238.5,159.5 C 239.833,160.167 240.833,161.167 241.5,162.5C 239.5,162.5 238.5,161.5 238.5,159.5 Z M 377.5,135.5 C 378.007,148.828 378.34,162.161 378.5,175.5C 377.566,165.341 376.899,155.007 376.5,144.5C 376.502,141.314 376.835,138.314 377.5,135.5 Z M 169.5,183.5 C 226.458,184.492 283.458,184.825 340.5,184.5C 284.001,185.665 227.335,185.832 170.5,185C 169.944,184.617 169.611,184.117 169.5,183.5 Z M 132.5,164.5 C 133.61,175.525 133.277,186.525 131.5,197.5C 131.794,186.499 132.128,175.499 132.5,164.5 Z M 379.5,183.5 C 379.802,197.168 380.135,210.834 380.5,224.5C 380.167,224.5 379.833,224.5 379.5,224.5C 378.674,210.666 378.674,196.999 379.5,183.5 Z M 130.5,219.5 C 131.451,220.919 131.784,222.585 131.5,224.5C 214.167,224.5 296.833,224.5 379.5,224.5C 379.833,224.5 380.167,224.5 380.5,224.5C 297.335,225.499 214.002,225.833 130.5,225.5C 130.5,223.5 130.5,221.5 130.5,219.5 Z M 229.5,235.5 C 229.167,235.5 228.833,235.5 228.5,235.5C 195.833,235.5 163.167,235.5 130.5,235.5C 130.768,237.099 130.434,238.432 129.5,239.5C 129.5,237.833 129.5,236.167 129.5,234.5C 163.004,234.168 196.338,234.502 229.5,235.5 Z M 381.5,244.5 C 380.523,241.713 380.19,238.713 380.5,235.5C 347.833,235.5 315.167,235.5 282.5,235.5C 282.832,273.337 282.498,311.004 281.5,348.5C 281.5,310.5 281.5,272.5 281.5,234.5C 314.833,234.5 348.167,234.5 381.5,234.5C 381.5,237.833 381.5,241.167 381.5,244.5 Z M 228.5,235.5 C 228.333,273.501 228.5,311.501 229,349.5C 229.24,351.852 230.073,353.852 231.5,355.5C 241.637,371.319 254.97,374.653 271.5,365.5C 274.167,364.833 275.833,363.167 276.5,360.5C 277.263,358.632 278.263,356.965 279.5,355.5C 281.163,353.562 281.829,351.228 281.5,348.5C 282.498,311.004 282.832,273.337 282.5,235.5C 315.167,235.5 347.833,235.5 380.5,235.5C 380.19,238.713 380.523,241.713 381.5,244.5C 381.5,244.833 381.5,245.167 381.5,245.5C 380.355,249.311 380.188,253.311 381,257.5C 381.383,258.056 381.883,258.389 382.5,258.5C 382.5,258.833 382.5,259.167 382.5,259.5C 381.344,266.989 381.178,274.655 382,282.5C 382.232,283.737 382.732,284.737 383.5,285.5C 384.269,310.164 384.936,334.83 385.5,359.5C 385.811,372.208 385.811,384.875 385.5,397.5C 382.397,409.603 374.73,416.937 362.5,419.5C 352.167,419.5 341.833,419.5 331.5,419.5C 331.768,417.901 331.434,416.568 330.5,415.5C 329.348,412.185 327.015,410.018 323.5,409C 278.167,408.333 232.833,408.333 187.5,409C 183.985,410.018 181.652,412.185 180.5,415.5C 179.566,416.568 179.232,417.901 179.5,419.5C 168.136,419.743 156.802,419.41 145.5,418.5C 143.447,418.598 141.78,417.931 140.5,416.5C 140.027,415.094 139.027,414.427 137.5,414.5C 131.201,410.522 127.201,404.855 125.5,397.5C 126.056,377.329 126.056,357.329 125.5,337.5C 126.159,334.545 126.492,331.545 126.5,328.5C 128.264,302.347 129.598,276.013 130.5,249.5C 130.498,246.314 130.165,243.314 129.5,240.5C 129.5,240.167 129.5,239.833 129.5,239.5C 130.434,238.432 130.768,237.099 130.5,235.5C 163.167,235.5 195.833,235.5 228.5,235.5 Z M 271.5,235.5 C 271.167,235.5 270.833,235.5 270.5,235.5C 260.5,235.5 250.5,235.5 240.5,235.5C 240.5,273.5 240.5,311.5 240.5,349.5C 239.501,311.337 239.168,273.004 239.5,234.5C 250.346,234.172 261.013,234.506 271.5,235.5 Z M 270.5,235.5 C 270.816,274.531 270.482,313.531 269.5,352.5C 267.467,357.355 263.801,360.022 258.5,360.5C 255.482,360.296 252.482,359.963 249.5,359.5C 244.386,358.053 241.386,354.72 240.5,349.5C 240.5,311.5 240.5,273.5 240.5,235.5C 250.5,235.5 260.5,235.5 270.5,235.5 Z M 228.5,235.5 C 228.833,235.5 229.167,235.5 229.5,235.5C 229.333,273.168 229.5,310.835 230,348.5C 230.662,350.813 231.162,353.146 231.5,355.5C 230.073,353.852 229.24,351.852 229,349.5C 228.5,311.501 228.333,273.501 228.5,235.5 Z M 270.5,235.5 C 270.833,235.5 271.167,235.5 271.5,235.5C 271.667,273.835 271.5,312.168 271,350.5C 270.722,351.416 270.222,352.082 269.5,352.5C 270.482,313.531 270.816,274.531 270.5,235.5 Z M 381.5,245.5 C 381.294,249.898 381.627,254.232 382.5,258.5C 381.883,258.389 381.383,258.056 381,257.5C 380.188,253.311 380.355,249.311 381.5,245.5 Z M 382.5,259.5 C 382.289,268.2 382.623,276.867 383.5,285.5C 382.732,284.737 382.232,283.737 382,282.5C 381.178,274.655 381.344,266.989 382.5,259.5 Z M 129.5,240.5 C 130.165,243.314 130.498,246.314 130.5,249.5C 129.598,276.013 128.264,302.347 126.5,328.5C 127.447,299.165 128.447,269.831 129.5,240.5 Z M 125.5,337.5 C 126.056,357.329 126.056,377.329 125.5,397.5C 124.778,397.082 124.278,396.416 124,395.5C 123.833,392 123.667,388.5 123.5,385C 124.846,369.194 125.513,353.361 125.5,337.5 Z M 281.5,348.5 C 281.829,351.228 281.163,353.562 279.5,355.5C 279.721,352.933 280.388,350.599 281.5,348.5 Z M 249.5,359.5 C 252.482,359.963 255.482,360.296 258.5,360.5C 255.373,361.815 252.373,361.482 249.5,359.5 Z M 276.5,360.5 C 275.833,363.167 274.167,364.833 271.5,365.5C 272.833,363.5 274.5,361.833 276.5,360.5 Z M 385.5,359.5 C 387.281,371.298 387.781,383.298 387,395.5C 386.722,396.416 386.222,397.082 385.5,397.5C 385.811,384.875 385.811,372.208 385.5,359.5 Z M 137.5,414.5 C 139.027,414.427 140.027,415.094 140.5,416.5C 138.973,416.573 137.973,415.906 137.5,414.5 Z M 180.5,415.5 C 180.5,417.167 180.5,418.833 180.5,420.5C 169.828,420.667 159.161,420.5 148.5,420C 147.263,419.768 146.263,419.268 145.5,418.5C 156.802,419.41 168.136,419.743 179.5,419.5C 179.232,417.901 179.566,416.568 180.5,415.5 Z M 330.5,415.5 C 331.434,416.568 331.768,417.901 331.5,419.5C 341.833,419.5 352.167,419.5 362.5,419.5C 352.013,420.494 341.346,420.828 330.5,420.5C 330.5,418.833 330.5,417.167 330.5,415.5 Z " />
</svg>