<svg viewBox="" xmlns="http://www.w3.org/2000/svg">
  <path d="M 150.5,90.5 C 153.167,90.5 155.833,90.5 158.5,90.5C 158.333,121.835 158.5,153.168 159,184.5C 160.859,189.026 164.026,192.192 168.5,194C 226.5,194.667 284.5,194.667 342.5,194C 347.667,192.833 350.833,189.667 352,184.5C 352.5,153.168 352.667,121.835 352.5,90.5C 364.698,90.1786 372.531,95.8453 376,107.5C 377.907,146.82 379.407,186.153 380.5,225.5C 297.167,225.5 213.833,225.5 130.5,225.5C 131.667,186.156 133.167,146.823 135,107.5C 137.283,99.0562 142.45,93.3895 150.5,90.5 Z M 252.5,124.5 C 254.5,124.5 256.5,124.5 258.5,124.5C 258.5,130.167 258.5,135.833 258.5,141.5C 256.5,141.5 254.5,141.5 252.5,141.5C 252.5,135.833 252.5,130.167 252.5,124.5 Z M 239.5,132.5 C 241.886,133.373 243.886,134.873 245.5,137C 239.498,145.315 240.498,152.649 248.5,159C 256.567,162.325 263.067,160.491 268,153.5C 270.556,147.437 269.722,141.937 265.5,137C 270.153,130.716 273.32,131.55 275,139.5C 278.479,153.043 273.645,162.209 260.5,167C 245.454,168.62 236.787,161.953 234.5,147C 234.919,141.678 236.586,136.844 239.5,132.5 Z M 167.5,90.5 C 226.167,90.5 284.833,90.5 343.5,90.5C 343.985,121.588 343.485,152.588 342,183.5C 341.5,184 341,184.5 340.5,185C 283.833,185.667 227.167,185.667 170.5,185C 170,184.5 169.5,184 169,183.5C 167.515,152.588 167.015,121.588 167.5,90.5 Z M 252.5,124.5 C 252.5,130.167 252.5,135.833 252.5,141.5C 254.5,141.5 256.5,141.5 258.5,141.5C 258.5,135.833 258.5,130.167 258.5,124.5C 256.5,124.5 254.5,124.5 252.5,124.5 Z M 239.5,132.5 C 236.586,136.844 234.919,141.678 234.5,147C 236.787,161.953 245.454,168.62 260.5,167C 273.645,162.209 278.479,153.043 275,139.5C 273.32,131.55 270.153,130.716 265.5,137C 269.722,141.937 270.556,147.437 268,153.5C 263.067,160.491 256.567,162.325 248.5,159C 240.498,152.649 239.498,145.315 245.5,137C 243.886,134.873 241.886,133.373 239.5,132.5 Z M 129.5,234.5 C 162.833,234.5 196.167,234.5 229.5,234.5C 229.333,272.168 229.5,309.835 230,347.5C 233.514,364.67 244.014,372.17 261.5,370C 272.211,366.624 278.711,359.457 281,348.5C 281.5,310.501 281.667,272.501 281.5,234.5C 314.833,234.5 348.167,234.5 381.5,234.5C 383.454,288.176 385.287,341.842 387,395.5C 383.5,408.333 375.333,416.5 362.5,420C 351.839,420.5 341.172,420.667 330.5,420.5C 330.823,414.969 328.49,411.136 323.5,409C 278.167,408.333 232.833,408.333 187.5,409C 182.477,411.215 180.144,415.048 180.5,420.5C 169.828,420.667 159.161,420.5 148.5,420C 135.693,416.526 127.526,408.36 124,395.5C 125.782,341.844 127.615,288.177 129.5,234.5 Z M 239.5,234.5 C 250.167,234.5 260.833,234.5 271.5,234.5C 271.667,273.168 271.5,311.835 271,350.5C 264.943,361.297 256.443,363.797 245.5,358C 243.031,355.559 241.198,352.726 240,349.5C 239.5,311.168 239.333,272.835 239.5,234.5 Z " />
</svg>