<svg viewBox="0 0 512 512" xmlns="http://www.w3.org/2000/svg">
  <path d="M356.174,38.957H155.826c-9.223,0-16.696,7.473-16.696,16.696v83.478H372.87V55.652    C372.87,46.43,365.397,38.957,356.174,38.957z M495.304,339.478H16.696C7.475,339.478,0,346.953,0,356.174v100.174c0,9.22,7.475,16.696,16.696,16.696h478.609    c9.22,0,16.696-7.475,16.696-16.696V356.174C512,346.953,504.525,339.478,495.304,339.478z M217.043,406.261H116.87    c-9.223,0-16.696-7.473-16.696-16.696c0-9.223,7.473-16.696,16.696-16.696h100.174c9.223,0,16.696,7.473,16.696,16.696    C233.739,398.788,226.266,406.261,217.043,406.261z M361.739,406.261c-9.22,0-16.696-7.475-16.696-16.696    c0-9.22,7.475-16.696,16.696-16.696s16.696,7.475,16.696,16.696C378.435,398.786,370.96,406.261,361.739,406.261z     M428.522,406.261c-9.22,0-16.696-7.475-16.696-16.696c0-9.22,7.475-16.696,16.696-16.696s16.696,7.475,16.696,16.696    C445.217,398.786,437.742,406.261,428.522,406.261z M385.662,172.522 126.338,172.522 40.633,306.087 471.367,306.087z  " />
</svg>