<svg viewBox="0 0 512 512" xmlns="http://www.w3.org/2000/svg">
  <path d="M495.304,306.087h-24.203L372.87,150.985V55.652c0-9.22-7.475-16.696-16.696-16.696H155.826    c-9.22,0-16.696,7.475-16.696,16.696v95.333L40.899,306.087H16.696C7.475,306.087,0,313.562,0,322.783v133.565    c0,9.22,7.475,16.696,16.696,16.696h478.609c9.22,0,16.696-7.475,16.696-16.696V322.783    C512,313.562,504.525,306.087,495.304,306.087z M172.522,72.348h166.957v66.783H172.522V72.348z M165.014,172.522h181.971    l84.591,133.565H80.423L165.014,172.522z M478.609,439.652H33.391V339.478h16.696h411.826h16.696V439.652z " />
</svg>