<svg viewBox="0 0 512.243 512.243" xmlns="http://www.w3.org/2000/svg">
  <path d="M364,114.121H148c-2.208,0-4,1.788-4,4v120c0,2.212,1.792,4,4,4h216c2.208,0,4-1.788,4-4v-120    C368,115.909,366.208,114.121,364,114.121z M360,234.121H152v-112h208V234.121z M501.68,354.121H468c-2.208,0-4,1.788-4,4c0,2.212,1.792,4,4,4h33.68c1.6,0,2.04,0.3,2.044,0.3    c0.004,0.008,0.276,0.408,0.276,1.824v19.752c0,3.156-1.308,6.124-2.32,6.124H13.804c-2.116,0-5.804-3.892-5.804-6.124v-19.752    c0-1.072,2.876-2.124,5.804-2.124H436c2.208,0,4-1.788,4-4c0-2.212-1.792-4-4-4H13.804C5.676,354.121,0,358.285,0,364.245v19.752    c0,6.732,7.224,14.124,13.804,14.124H501.68c6.776,0,10.32-7.104,10.32-14.124v-19.752    C512,357.717,508.336,354.121,501.68,354.121z M152.452,233.497c-1.452-1.664-3.976-1.84-5.644-0.396L4.62,356.677c-1.668,1.448-1.844,3.976-0.396,5.644    c0.788,0.912,1.9,1.376,3.02,1.376c0.928,0,1.864-0.328,2.62-0.984l142.192-123.572    C153.724,237.693,153.9,235.165,152.452,233.497z M510.864,356.677L368.428,233.101c-1.672-1.456-4.2-1.268-5.644,0.4c-1.448,1.668-1.268,4.196,0.4,5.64L505.62,362.717    c0.76,0.66,1.692,0.98,2.62,0.98c1.12,0,2.232-0.472,3.024-1.38C512.712,360.649,512.532,358.121,510.864,356.677z M47.384,364.121c-5.512,0-10,4.484-10,10s4.488,10,10,10c5.516,0,10-4.484,10-10S52.896,364.121,47.384,364.121z     M47.384,376.121c-1.104,0-2-0.9-2-2c0-1.1,0.896-2,2-2c1.104,0,2,0.9,2,2C49.384,375.221,48.488,376.121,47.384,376.121z M75.74,364.121c-5.512,0-10,4.484-10,10s4.488,10,10,10c5.512,0,10-4.484,10-10S81.252,364.121,75.74,364.121z     M75.74,376.121c-1.104,0-2-0.9-2-2c0-1.1,0.896-2,2-2s2,0.9,2,2C77.74,375.221,76.844,376.121,75.74,376.121z M120,366.121H96c-2.208,0-4,1.788-4,4c0,2.212,1.792,4,4,4h24c2.208,0,4-1.788,4-4    C124,367.909,122.208,366.121,120,366.121z M120,378.121H96c-2.208,0-4,1.788-4,4c0,2.212,1.792,4,4,4h24c2.208,0,4-1.788,4-4    C124,379.909,122.208,378.121,120,378.121z M344,134.121h-16c-2.208,0-4,1.788-4,4c0,2.212,1.792,4,4,4h12v20c0,2.212,1.792,4,4,4s4-1.788,4-4v-24    C348,135.909,346.208,134.121,344,134.121z M344,174.121c-2.208,0-4,1.788-4,4v12c0,2.212,1.792,4,4,4s4-1.788,4-4v-12C348,175.909,346.208,174.121,344,174.121z " />
</svg>