<svg version="1.1" xmlns="http://www.w3.org/2000/svg" width="256" height="256">
  <path d="M0 0 C0.67182312 0.00270905 1.34364624 0.00541809 2.03582764 0.00820923 C13.04560561 0.07526442 23.18682113 1.08738802 33.6875 4.4375 C34.85796875 4.79972656 36.0284375 5.16195312 37.234375 5.53515625 C47.08671318 8.94647053 55.8384953 14.59805931 63.6875 21.4375 C63.6875 22.0975 63.6875 22.7575 63.6875 23.4375 C64.3475 23.4375 65.0075 23.4375 65.6875 23.4375 C76.00272733 35.23960694 84.05221163 51.5817612 84.6875 67.4375 C84.7390625 68.63246094 84.790625 69.82742187 84.84375 71.05859375 C85.37535445 89.13968133 78.95075755 102.67635355 69.875 117.9375 C66.53647662 123.58319514 63.79373967 128.35654962 63.5625 135.0625 C64.91322742 139.11468226 66.61093284 140.52817055 69.99609375 142.98046875 C71.94613104 144.66029302 72.7612382 146.04774455 73.6875 148.4375 C73.75 151.5 73.75 151.5 72.6875 154.4375 C66.98211687 158.15840204 61.31056101 157.72224944 54.6875 157.4375 C53.6975 157.4375 52.7075 157.4375 51.6875 157.4375 C52.39777344 157.85902344 53.10804688 158.28054687 53.83984375 158.71484375 C54.75894531 159.26269531 55.67804688 159.81054688 56.625 160.375 C57.54152344 160.92027344 58.45804688 161.46554688 59.40234375 162.02734375 C61.6875 163.4375 61.6875 163.4375 62.6875 164.4375 C62.75 167.75 62.75 167.75 61.6875 171.4375 C54.87708848 176.78740369 45.9667714 177.03922363 37.6875 176.4375 C30.23922359 175.12766898 23.0978845 171.8478845 17.6875 166.4375 C17.45675781 167.08976563 17.22601563 167.74203125 16.98828125 168.4140625 C14.73379089 174.45574022 12.57992495 179.98136286 6.8984375 183.56640625 C2.35049175 185.35826473 -2.52942763 185.05301601 -7.3125 184.4375 C-13.72744032 181.59768452 -16.3676797 174.34005647 -19.3125 168.4375 C-20.26511719 168.93121094 -21.21773437 169.42492187 -22.19921875 169.93359375 C-23.46598171 170.58105037 -24.73291801 171.22816794 -26 171.875 C-26.62583984 172.20048828 -27.25167969 172.52597656 -27.89648438 172.86132812 C-35.67315474 176.81073663 -43.85181079 177.84806166 -52.3671875 175.6484375 C-60.71692316 172.74707047 -60.71692316 172.74707047 -63.3125 169.4375 C-63.625 166.625 -63.625 166.625 -62.3125 163.4375 C-59.15972678 161.08093561 -55.81203137 159.22854872 -52.3125 157.4375 C-53.18132812 157.47230469 -54.05015625 157.50710937 -54.9453125 157.54296875 C-66.6791466 157.81859573 -66.6791466 157.81859573 -71.3125 154.4375 C-73.3125 151.4375 -73.3125 151.4375 -73.1875 149.01171875 C-72.12434769 145.88396263 -70.72786652 144.47990088 -68.3125 142.25 C-64.10554517 138.36191895 -64.10554517 138.36191895 -63 132.8125 C-63.14209053 125.59171779 -67.54630646 120.04810915 -71.25 114.125 C-82.46870439 96.00408158 -85.82797257 78.20749981 -81.28515625 57.32421875 C-76.53809297 37.4277891 -65.66069682 22.07863916 -48.4375 11.1875 C-33.31558136 2.59062972 -17.16797052 -0.13488349 0 0 Z " fill="#FC47D5" transform="translate(127.3125,35.5625)" />
  <path d="M0 0 C5.09242128 2.28179646 8.6839881 5.72855633 11.78125 10.34765625 C13.58607452 15.7621298 13.54494274 21.32387049 11.53125 26.66015625 C8.45496747 31.38444728 5.90730547 34.81680041 0.78125 37.34765625 C-5.29156906 38.13605732 -11.16562948 38.28416737 -16.78125 35.72265625 C-22.14048584 30.50083672 -25.83756413 26.22304593 -26.59375 18.53515625 C-26.43225622 13.18567471 -24.43680941 8.69025911 -20.7578125 4.8046875 C-14.45201704 -0.65286644 -8.1307069 -2.39054234 0 0 Z " fill="#F9F2F7" transform="translate(102.21875,111.65234375)" />
  <path d="M0 0 C3.43177746 2.0085448 6.2103492 4.4206984 8 8 C8.62133059 12.30212445 8.97036679 16.33395487 6.73046875 20.1796875 C3.98720915 23.39684353 1.9262684 25.7828683 -2.42578125 26.2734375 C-10.2722857 26.54949855 -10.2722857 26.54949855 -14.0625 23.6875 C-16.95234056 19.67901148 -18.25328431 17.75144606 -18.125 12.8125 C-18.10695313 11.91144531 -18.08890625 11.01039063 -18.0703125 10.08203125 C-18.04710938 9.39496094 -18.02390625 8.70789063 -18 8 C-15.66666667 8 -13.33333333 8 -11 8 C-11 6.68 -11 5.36 -11 4 C-11.66 3.34 -12.32 2.68 -13 2 C-8.74617755 -0.83588164 -4.99180359 -0.89112379 0 0 Z " fill="#0F0722" transform="translate(102,120)" />
  <path d="M0 0 C5.10673374 0.0219802 7.5005689 1.42570124 11.09765625 4.9296875 C13.94048363 8.28544092 13.8192555 11.57123602 13.80078125 15.8203125 C13.10219485 20.1143757 10.62118718 22.68749169 7.375 25.4375 C3.61563624 27.31718188 -0.54198301 27.09565796 -4.625 26.4375 C-8.60629682 24.18285879 -11.17222828 21.79581515 -12.625 17.4375 C-12.828125 15.28125 -12.828125 15.28125 -12.875 12.9375 C-12.90078125 12.1640625 -12.9265625 11.390625 -12.953125 10.59375 C-12.5506922 7.94919162 -11.65604151 7.10509198 -9.625 5.4375 C-9.625 6.4275 -9.625 7.4175 -9.625 8.4375 C-7.645 8.4375 -5.665 8.4375 -3.625 8.4375 C-4.285 6.1275 -4.945 3.8175 -5.625 1.4375 C-4.00106095 -0.18643905 -2.24052751 0.11168793 0 0 Z " fill="#10042B" transform="translate(155.625,119.5625)" />
  <path d="M0 0 C4.76188996 3.16529728 8.69680479 5.94785193 10.29296875 11.6484375 C11.23940392 18.23660959 9.92935678 23.11861985 6.29296875 28.6484375 C3.404426 32.30725832 0.82401033 33.60281252 -3.70703125 34.6484375 C-9.55629524 35.1126648 -13.52832933 34.7172979 -18.70703125 31.6484375 C-23.57635968 26.28559606 -26.04914223 22.20356044 -25.91015625 14.953125 C-25.33753432 8.45606849 -21.31826116 5.07625407 -16.64453125 1.06640625 C-11.67674965 -2.56928875 -5.39315308 -2.69268538 0 0 Z M-12.70703125 6.6484375 C-12.70703125 9.48810981 -12.30435944 11.88579461 -11.70703125 14.6484375 C-13.68703125 14.6484375 -15.66703125 14.6484375 -17.70703125 14.6484375 C-18.03703125 13.6584375 -18.36703125 12.6684375 -18.70703125 11.6484375 C-21.40600381 15.69689635 -21.24323321 18.89802322 -20.70703125 23.6484375 C-18.96283688 27.77942417 -16.59608929 30.41429778 -12.70703125 32.6484375 C-8.33507152 33.5168913 -4.4552622 33.68162624 -0.5390625 31.3671875 C2.56752666 28.7538094 5.04012383 26.6567486 5.56640625 22.4765625 C5.82797722 16.36201381 5.82797722 16.36201381 2.98046875 11.1484375 C-0.83117524 7.60272216 -2.75613261 6.3899726 -7.89453125 6.5234375 C-9.24611328 6.55050781 -9.24611328 6.55050781 -10.625 6.578125 C-11.65560547 6.61292969 -11.65560547 6.61292969 -12.70703125 6.6484375 Z " fill="#FBEFF8" transform="translate(163.70703125,113.3515625)" />
  <path d="M0 0 C0.90105469 0.01804687 1.80210938 0.03609375 2.73046875 0.0546875 C3.41753906 0.07789062 4.10460937 0.10109375 4.8125 0.125 C4.8125 0.455 4.8125 0.785 4.8125 1.125 C2.8325 1.455 0.8525 1.785 -1.1875 2.125 C-1.5175 9.385 -1.8475 16.645 -2.1875 24.125 C0.1225 24.455 2.4325 24.785 4.8125 25.125 C4.8125 25.455 4.8125 25.785 4.8125 26.125 C-5.1479406 26.90997343 -5.1479406 26.90997343 -9.25 23.8125 C-12.13984056 19.80401148 -13.44078431 17.87644606 -13.3125 12.9375 C-13.29445313 12.03644531 -13.27640625 11.13539063 -13.2578125 10.20703125 C-13.23460938 9.51996094 -13.21140625 8.83289063 -13.1875 8.125 C-10.85416667 8.125 -8.52083333 8.125 -6.1875 8.125 C-6.1875 6.805 -6.1875 5.485 -6.1875 4.125 C-6.8475 3.465 -7.5075 2.805 -8.1875 2.125 C-4.87379 -0.08414 -3.8428979 -0.09981553 0 0 Z " fill="#13014A" transform="translate(97.1875,119.875)" />
  <path d="M0 0 C5.10673374 0.0219802 7.5005689 1.42570124 11.09765625 4.9296875 C13.9395819 8.28437649 13.81927676 11.56860467 13.80078125 15.81640625 C13.11192183 20.05699953 10.71105365 22.82742694 7.375 25.4375 C6.715 25.4375 6.055 25.4375 5.375 25.4375 C5.34994385 24.81182129 5.3248877 24.18614258 5.29907227 23.54150391 C5.18324727 20.71495381 5.06046015 17.88874831 4.9375 15.0625 C4.89818359 14.07765625 4.85886719 13.0928125 4.81835938 12.078125 C4.77646484 11.13710937 4.73457031 10.19609375 4.69140625 9.2265625 C4.65474854 8.35725098 4.61809082 7.48793945 4.58032227 6.59228516 C4.50098456 4.3891738 4.50098456 4.3891738 3.375 2.4375 C1.725 2.4375 0.075 2.4375 -1.625 2.4375 C-1.955 4.7475 -2.285 7.0575 -2.625 9.4375 C-4.605 9.4375 -6.585 9.4375 -8.625 9.4375 C-8.625 9.1075 -8.625 8.7775 -8.625 8.4375 C-6.975 8.4375 -5.325 8.4375 -3.625 8.4375 C-4.285 6.1275 -4.945 3.8175 -5.625 1.4375 C-4.00106095 -0.18643905 -2.24052751 0.11168793 0 0 Z " fill="#1D0B66" transform="translate(155.625,119.5625)" />
  <path d="M0 0 C3 1 3 1 4 3 C4.08426094 4.6674606 4.10725143 6.33825187 4.09765625 8.0078125 C4.09443359 8.99394531 4.09121094 9.98007813 4.08789062 10.99609375 C4.07951172 12.02863281 4.07113281 13.06117188 4.0625 14.125 C4.05798828 15.16527344 4.05347656 16.20554688 4.04882812 17.27734375 C4.03701967 19.85158687 4.01908385 22.42580053 4 25 C0.7 25 -2.6 25 -6 25 C-6 24.67 -6 24.34 -6 24 C-4.35 23.67 -2.7 23.34 -1 23 C-1.00523682 22.3387915 -1.01047363 21.67758301 -1.01586914 20.99633789 C-1.03657656 18.01840149 -1.04964012 15.04048018 -1.0625 12.0625 C-1.07087891 11.02158203 -1.07925781 9.98066406 -1.08789062 8.90820312 C-1.09111328 7.91884766 -1.09433594 6.92949219 -1.09765625 5.91015625 C-1.10289307 4.99371338 -1.10812988 4.07727051 -1.11352539 3.13305664 C-1 1 -1 1 0 0 Z " fill="#160549" transform="translate(157,121)" />
  <path d="M0 0 C0.56847656 0.32613281 1.13695313 0.65226563 1.72265625 0.98828125 C6.6754301 3.18857015 12.86232541 2.32585151 18 1 C17.67922958 3.9671264 17.47546225 5.55130927 15.265625 7.63671875 C11.37908971 9.97534085 7.38503237 9.78537893 3 9 C0.3125 6.75 0.3125 6.75 -1 4 C-0.75 1.6875 -0.75 1.6875 0 0 Z " fill="#390B42" transform="translate(116,159)" />
  <path d="M0 0 C0.33 0 0.66 0 1 0 C1.07476562 0.59167969 1.14953125 1.18335938 1.2265625 1.79296875 C1.94764003 6.12650332 2.66913717 8.59469304 5.5 12.0625 C8.98221796 14.51200136 12.4232237 14.71761186 16.59375 14.47265625 C20.81548001 13.64338786 22.24490664 12.37498937 25 9 C26.02283171 6.03080891 26.60680168 3.11169019 27 0 C27.33 0 27.66 0 28 0 C28.65851761 3.35778779 29.115454 6.57311534 29 10 C26.07596258 14.25314533 22.99157894 15.92338493 18 17 C11.02484431 17.55358378 6.01390224 16.5618169 0.5 11.875 C-1.64946669 7.75518885 -0.89061251 4.44338198 0 0 Z " fill="#E1D2DF" transform="translate(142,131)" />
  <path d="M0 0 C1.2989839 0.90626784 2.58893167 1.82549537 3.875 2.75 C4.59429687 3.26046875 5.31359375 3.7709375 6.0546875 4.296875 C8.12543194 6.10981592 9.03891099 7.43877326 10 10 C10.0625 13.0625 10.0625 13.0625 9 16 C3.29461687 19.72090204 -2.37693899 19.28474944 -9 19 C-9.99 19 -10.98 19 -12 19 C-11.34 19.33 -10.68 19.66 -10 20 C-10 20.66 -10 21.32 -10 22 C-14.41889613 20.64978174 -16.34345343 18.73884332 -19 15 C-18.67 14.34 -18.34 13.68 -18 13 C-17.21689453 13.32484375 -17.21689453 13.32484375 -16.41796875 13.65625 C-9.52676517 16.26308007 -2.26739291 17.53838335 4.828125 14.98046875 C5.54484375 14.65691406 6.2615625 14.33335937 7 14 C6.79738425 9.7450692 5.95540744 7.63298922 2.9375 4.75 C2.38964844 4.27046875 1.84179688 3.7909375 1.27734375 3.296875 C0 2 0 2 0 0 Z " fill="#C636AD" transform="translate(191,174)" />
  <path d="M0 0 C2.33944736 0.28730055 4.6739143 0.61936779 7 1 C7 1.66 7 2.32 7 3 C6.01 3.495 6.01 3.495 5 4 C4.53101037 6.8159849 4.53101037 6.8159849 4.375 10.0625 C4.189375 13.0015625 4.189375 13.0015625 4 16 C8.29 16.66 12.58 17.32 17 18 C17 18.33 17 18.66 17 19 C7.0395594 19.78497343 7.0395594 19.78497343 2.9375 16.6875 C0.08225707 12.72700174 -1.2658041 10.75832866 -1.1875 5.875 C-1.18105469 4.98554688 -1.17460938 4.09609375 -1.16796875 3.1796875 C-1 1 -1 1 0 0 Z " fill="#2F2465" transform="translate(85,127)" />
  <path d="M0 0 C0.89589844 -0.01417969 1.79179687 -0.02835937 2.71484375 -0.04296875 C5.0625 0.1875 5.0625 0.1875 7.0625 2.1875 C7.28955078 4.52587891 7.28955078 4.52587891 7.2578125 7.4140625 C7.25136719 8.4453125 7.24492187 9.4765625 7.23828125 10.5390625 C7.22152344 11.61929688 7.20476562 12.69953125 7.1875 13.8125 C7.17847656 14.90046875 7.16945312 15.9884375 7.16015625 17.109375 C7.13653409 19.80230152 7.10359556 22.49479255 7.0625 25.1875 C6.4025 25.1875 5.7425 25.1875 5.0625 25.1875 C5.03744385 24.56182129 5.0123877 23.93614258 4.98657227 23.29150391 C4.87074727 20.46495381 4.74796015 17.63874831 4.625 14.8125 C4.58568359 13.82765625 4.54636719 12.8428125 4.50585938 11.828125 C4.46396484 10.88710937 4.42207031 9.94609375 4.37890625 8.9765625 C4.34224854 8.10725098 4.30559082 7.23793945 4.26782227 6.34228516 C4.18848456 4.1391738 4.18848456 4.1391738 3.0625 2.1875 C1.4125 2.1875 -0.2375 2.1875 -1.9375 2.1875 C-2.2675 4.4975 -2.5975 6.8075 -2.9375 9.1875 C-4.9175 9.1875 -6.8975 9.1875 -8.9375 9.1875 C-8.9375 8.8575 -8.9375 8.5275 -8.9375 8.1875 C-7.2875 8.1875 -5.6375 8.1875 -3.9375 8.1875 C-4.5975 5.8775 -5.2575 3.5675 -5.9375 1.1875 C-4.27188601 -0.47811399 -2.27787295 0.01634055 0 0 Z " fill="#19065E" transform="translate(155.9375,119.8125)" />
  <path d="M0 0 C0.33 0 0.66 0 1 0 C1 2.64 1 5.28 1 8 C1.66 8 2.32 8 3 8 C1.0538131 12.77700421 -2.1444002 16.13405342 -6.8125 18.3125 C-7.534375 18.539375 -8.25625 18.76625 -9 19 C-9 18.67 -9 18.34 -9 18 C-11.64 17.67 -14.28 17.34 -17 17 C-17 16.67 -17 16.34 -17 16 C-16.41992188 15.98582031 -15.83984375 15.97164062 -15.2421875 15.95703125 C-11.00484964 15.6983159 -8.31894549 15.17976927 -4.5625 13.0625 C-1.13887469 8.97085024 -0.58623709 5.2053811 0 0 Z " fill="#CFC0CC" transform="translate(110,130)" />
  <path d="M0 0 C1.134375 0.020625 2.26875 0.04125 3.4375 0.0625 C2.798125 0.371875 2.15875 0.68125 1.5 1 C-0.49860821 1.8970163 -0.49860821 1.8970163 -1.5625 3.0625 C-1.71905027 4.54888992 -1.81316943 6.04199127 -1.87890625 7.53515625 C-1.92080078 8.43427734 -1.96269531 9.33339844 -2.00585938 10.25976562 C-2.04517578 11.20529297 -2.08449219 12.15082031 -2.125 13.125 C-2.16818359 14.07439453 -2.21136719 15.02378906 -2.25585938 16.00195312 C-2.36229276 18.35531353 -2.46431008 20.70878354 -2.5625 23.0625 C-3.5525 23.0625 -4.5425 23.0625 -5.5625 23.0625 C-5.42433041 19.41633329 -5.27568466 15.77066926 -5.125 12.125 C-5.06602539 10.56362305 -5.06602539 10.56362305 -5.00585938 8.97070312 C-4.96396484 7.98134766 -4.92207031 6.99199219 -4.87890625 5.97265625 C-4.84224854 5.05621338 -4.80559082 4.13977051 -4.76782227 3.19555664 C-4.41763773 -0.44244846 -3.83071807 0.06720558 0 0 Z " fill="#13033A" transform="translate(99.5625,120.9375)" />
  <path d="M0 0 C1.65 1.65 3.3 3.3 5 5 C4.01 5.33 3.02 5.66 2 6 C2 8.97 2 11.94 2 15 C1.01 15 0.02 15 -1 15 C-1.92867074 12.21398777 -2.16342217 10.38933911 -2.1875 7.5 C-2.20167969 6.7265625 -2.21585938 5.953125 -2.23046875 5.15625 C-2 3 -2 3 0 0 Z " fill="#212026" transform="translate(145,125)" />
  <path d="M0 0 C0.66 0.33 1.32 0.66 2 1 C-3.11926606 7.5412844 -3.11926606 7.5412844 -7 9 C-9.875 9.3359375 -9.875 9.3359375 -13 9.375 C-14.03125 9.40335938 -15.0625 9.43171875 -16.125 9.4609375 C-19.63904847 8.89754386 -20.77865538 7.70192398 -23 5 C-22.2884375 5.15984375 -21.576875 5.3196875 -20.84375 5.484375 C-15.18007569 6.51130496 -9.28823288 6.98067124 -3.9375 4.6875 C-1.7843899 2.96162871 -1.7843899 2.96162871 0 0 Z " fill="#CE39B3" transform="translate(139,211)" />
  <path d="M0 0 C0.99 0 1.98 0 3 0 C2.25 4.75 2.25 4.75 0 7 C-2.3828125 7.1953125 -2.3828125 7.1953125 -5.125 7.125 C-6.49011719 7.09792969 -6.49011719 7.09792969 -7.8828125 7.0703125 C-8.58148438 7.04710937 -9.28015625 7.02390625 -10 7 C-8.68 6.34 -7.36 5.68 -6 5 C-6.66 4.34 -7.32 3.68 -8 3 C-6.865625 2.87625 -5.73125 2.7525 -4.5625 2.625 C-3.386875 2.41875 -2.21125 2.2125 -1 2 C-0.67 1.34 -0.34 0.68 0 0 Z " fill="#190231" transform="translate(131,160)" />
  <path d="M0 0 C0 2.62113708 -0.31292445 4.50935112 -1 7 C2.1254959 9.64465038 5.08788267 10.84414715 9 12 C9 12.66 9 13.32 9 14 C3.97370003 13.26083824 -0.36892762 11.63107238 -4 8 C-3.8125 5 -3.8125 5 -3 2 C-2.01 1.34 -1.02 0.68 0 0 Z " fill="#C736AD" transform="translate(68,197)" />
  <path d="M0 0 C0.66 0.33 1.32 0.66 2 1 C2 4.96 2 8.92 2 13 C1.01 13 0.02 13 -1 13 C-1.02686553 11.02090602 -1.04633375 9.04171029 -1.0625 7.0625 C-1.07410156 5.96035156 -1.08570312 4.85820312 -1.09765625 3.72265625 C-1 1 -1 1 0 0 Z " fill="#15005D" transform="translate(90,130)" />
  <path d="M0 0 C1.32 0.66 2.64 1.32 4 2 C4 3.65 4 5.3 4 7 C2.02 7 0.04 7 -2 7 C-2.6875 5.1875 -2.6875 5.1875 -3 3 C-1.5625 1.25 -1.5625 1.25 0 0 Z " fill="#E7E7E7" transform="translate(148,121)" />
  <path d="M0 0 C0.99 0.33 1.98 0.66 3 1 C3.08121924 2.60332791 3.13929134 4.20784026 3.1875 5.8125 C3.23970703 7.15248047 3.23970703 7.15248047 3.29296875 8.51953125 C3 11 3 11 0 14 C0 9.38 0 4.76 0 0 Z " fill="#221D3D" transform="translate(166,127)" />
  <path d="M0 0 C-3.60778414 4.91970564 -6.24665785 6.96940865 -12 9 C-11 6 -11 6 -8.9375 4.8125 C-8.298125 4.544375 -7.65875 4.27625 -7 4 C-7.33 3.01 -7.66 2.02 -8 1 C-2.25 -1.125 -2.25 -1.125 0 0 Z " fill="#C536AB" transform="translate(82,189)" />
  <path d="M0 0 C0.66 0.33 1.32 0.66 2 1 C2 4.63 2 8.26 2 12 C1.01 11.67 0.02 11.34 -1 11 C-1.02688151 9.35425434 -1.04634123 7.70838587 -1.0625 6.0625 C-1.07410156 5.14597656 -1.08570312 4.22945312 -1.09765625 3.28515625 C-1 1 -1 1 0 0 Z " fill="#28224E" transform="translate(85,127)" />
  <path d="M0 0 C0.33 0 0.66 0 1 0 C1 2.64 1 5.28 1 8 C1.66 8 2.32 8 3 8 C2 10 1 12 0 14 C-0.99 14 -1.98 14 -3 14 C-2.85691406 13.44828125 -2.71382813 12.8965625 -2.56640625 12.328125 C-1.9544691 9.81285231 -1.43873189 7.28957492 -0.9375 4.75 C-0.67259766 3.41195312 -0.67259766 3.41195312 -0.40234375 2.046875 C-0.26957031 1.37140625 -0.13679688 0.6959375 0 0 Z " fill="#DFD7DD" transform="translate(110,130)" />
  <path d="M0 0 C0.99 0.33 1.98 0.66 3 1 C2.67 4.63 2.34 8.26 2 12 C0.68 11.34 -0.64 10.68 -2 10 C-1.34 9.67 -0.68 9.34 0 9 C0 6.03 0 3.06 0 0 Z " fill="#0D0719" transform="translate(147,131)" />
  <path d="M0 0 C0.33 0 0.66 0 1 0 C1.12117187 0.59167969 1.24234375 1.18335938 1.3671875 1.79296875 C2.26744643 6.03803585 3.20456621 10.02439661 5 14 C2.70895944 13.08358378 1.24942899 12.30881685 -0.3125 10.375 C-1.36457706 6.74055199 -0.61928668 3.71572005 0 0 Z " fill="#E6D8E2" transform="translate(142,131)" />
  <path d="M0 0 C1.37478516 0.01740234 1.37478516 0.01740234 2.77734375 0.03515625 C3.69644531 0.04417969 4.61554688 0.05320312 5.5625 0.0625 C6.27277344 0.07410156 6.98304688 0.08570312 7.71484375 0.09765625 C7.71484375 0.42765625 7.71484375 0.75765625 7.71484375 1.09765625 C5.40484375 1.42765625 3.09484375 1.75765625 0.71484375 2.09765625 C0.38484375 4.40765625 0.05484375 6.71765625 -0.28515625 9.09765625 C-2.26515625 9.09765625 -4.24515625 9.09765625 -6.28515625 9.09765625 C-6.28515625 8.76765625 -6.28515625 8.43765625 -6.28515625 8.09765625 C-4.63515625 8.09765625 -2.98515625 8.09765625 -1.28515625 8.09765625 C-1.94515625 5.78765625 -2.60515625 3.47765625 -3.28515625 1.09765625 C-2.28515625 0.09765625 -2.28515625 0.09765625 0 0 Z " fill="#5E5C63" transform="translate(153.28515625,119.90234375)" />
  <path d="M0 0 C0.90105469 0.01804687 1.80210938 0.03609375 2.73046875 0.0546875 C3.41753906 0.07789062 4.10460937 0.10109375 4.8125 0.125 C4.8125 0.455 4.8125 0.785 4.8125 1.125 C2.1725 1.455 -0.4675 1.785 -3.1875 2.125 C-3.5175 4.105 -3.8475 6.085 -4.1875 8.125 C-4.47625 7.50625 -4.765 6.8875 -5.0625 6.25 C-6.12470042 3.99174235 -6.12470042 3.99174235 -8.1875 2.125 C-4.87379 -0.08414 -3.8428979 -0.09981553 0 0 Z " fill="#5A586C" transform="translate(97.1875,119.875)" />
  <path d="M0 0 C-0.33 1.32 -0.66 2.64 -1 4 C-2.98 4.33 -4.96 4.66 -7 5 C-7 4.01 -7 3.02 -7 2 C-4 0 -4 0 0 0 Z " fill="#4E114B" transform="translate(81,97)" />
  <path d="M0 0 C4.75 0.875 4.75 0.875 7 2 C7 2.99 7 3.98 7 5 C4.69 4.34 2.38 3.68 0 3 C0 2.01 0 1.02 0 0 Z " fill="#440E45" transform="translate(173,95)" />
  <path d="M0 0 C0.66 0.474375 1.32 0.94875 2 1.4375 C5.7933028 3.41317854 8.75524068 3.64027463 13 4 C13 4.33 13 4.66 13 5 C9.37 5 5.74 5 2 5 C1.34 3.35 0.68 1.7 0 0 Z " fill="#CBBFC9" transform="translate(146,142)" />
  <path d="M0 0 C0.66 0.33 1.32 0.66 2 1 C-2.625 6.875 -2.625 6.875 -6 8 C-4.55746343 4.63408134 -2.66735273 2.48952921 0 0 Z " fill="#C134A9" transform="translate(139,211)" />
</svg>