<svg viewBox="0 0 514 514" xmlns="http://www.w3.org/2000/svg">
  <path d="M 228.000 75.434 C 213.126 77.358 206.256 78.713 195.103 81.923 C 136.889 98.677 100.873 142.208 92.429 206.024 C 88.042 239.173 94.916 265.424 117.235 300.763 C 121.659 307.768 126.904 316.650 128.890 320.500 C 132.252 327.020 132.500 328.118 132.496 336.500 C 132.491 347.719 131.550 349.632 120.381 361.121 C 111.686 370.066 110.299 373.187 113.282 377.096 C 118.913 384.475 139.058 385.543 156.170 379.371 C 159.985 377.995 163.512 377.011 164.008 377.184 C 165.482 377.700 162.022 383.743 157.881 387.883 C 155.761 390.004 150.758 393.433 146.763 395.504 C 138.277 399.904 133.423 403.342 132.035 405.934 C 128.650 412.259 150.175 422.025 167.410 421.983 C 171.309 421.973 177.650 421.308 181.500 420.505 C 190.102 418.710 204.818 411.571 213.566 404.950 C 217.163 402.227 220.440 400.000 220.849 400.000 C 221.258 400.000 222.402 403.488 223.391 407.750 C 228.032 427.751 238.662 438.965 253.007 438.990 C 259.985 439.003 264.293 437.762 269.285 434.303 C 276.170 429.531 282.200 418.332 286.005 403.250 C 286.605 400.873 287.673 399.000 288.430 399.000 C 289.174 399.000 291.969 400.816 294.641 403.035 C 301.827 409.003 313.438 415.503 322.500 418.630 C 329.445 421.027 332.083 421.398 342.500 421.446 C 356.376 421.509 365.340 419.295 373.622 413.760 C 382.244 407.998 380.225 403.941 364.781 395.994 C 355.849 391.398 347.946 384.152 346.105 378.871 C 345.086 375.948 345.152 375.802 347.262 376.304 C 348.493 376.597 352.475 377.969 356.112 379.352 C 369.513 384.449 385.679 384.755 394.833 380.085 C 399.164 377.875 400.696 374.908 399.652 370.750 C 399.341 369.513 395.645 365.127 391.439 361.005 C 381.666 351.428 379.688 347.640 379.684 338.500 C 379.680 329.382 381.431 325.198 394.956 302.008 C 411.758 273.197 416.966 261.490 420.393 244.834 C 426.035 217.411 420.763 181.374 407.149 154.295 C 385.486 111.211 346.927 85.269 291.500 76.491 C 277.555 74.282 241.541 73.683 228.000 75.434 M 206.477 224.077 C 217.121 228.060 225.676 237.093 229.406 248.285 C 230.328 251.055 231.000 256.410 231.000 261.000 C 231.000 273.972 226.092 284.719 216.821 292.047 C 195.268 309.084 162.463 299.829 154.100 274.354 C 147.409 253.972 156.777 232.259 175.668 224.365 C 184.779 220.559 196.773 220.446 206.477 224.077 M 326.945 226.481 C 336.677 229.914 345.296 238.655 348.658 248.500 C 350.809 254.799 350.800 267.860 348.640 273.761 C 344.975 283.776 336.432 292.237 326.500 295.688 C 319.314 298.184 307.137 297.910 299.798 295.086 C 284.058 289.030 274.695 271.635 277.877 254.361 C 278.550 250.710 280.010 245.941 281.121 243.762 C 285.819 234.553 295.581 227.219 306.045 225.036 C 311.570 223.883 321.536 224.572 326.945 226.481 M 239.055 320.566 C 243.333 325.721 250.873 326.241 259.840 321.999 C 263.327 320.350 267.256 319.000 268.571 319.000 C 273.779 319.000 272.450 328.642 266.525 333.844 C 256.978 342.226 237.846 340.960 232.038 331.561 C 230.084 328.400 229.242 321.092 230.667 319.667 C 231.945 318.388 237.765 319.012 239.055 320.566 M 358.809 191.063 C 363.667 193.849 364.092 194.380 363.809 197.304 C 363.456 200.955 362.223 201.137 353.500 198.825 C 346.902 197.077 346.000 196.393 346.000 193.141 C 346.000 187.211 350.748 186.441 358.809 191.063 M 163.182 194.500 C 165.056 198.613 163.033 201.591 157.835 202.371 C 155.451 202.728 151.813 203.290 149.750 203.620 C 146.279 204.174 146.000 204.037 146.000 201.784 C 146.000 197.777 153.704 192.120 159.271 192.040 C 161.279 192.011 162.357 192.689 163.182 194.500  " />
</svg>
