<?xml version="1.0" standalone="no"?>
<!DOCTYPE svg PUBLIC "-//W3C//DTD SVG 20010904//EN"
 "http://www.w3.org/TR/2001/REC-SVG-20010904/DTD/svg10.dtd">
<svg version="1.0" xmlns="http://www.w3.org/2000/svg"
 width="512.000000pt" height="512.000000pt" viewBox="0 0 512.000000 512.000000"
 preserveAspectRatio="xMidYMid meet">

<g transform="translate(0.000000,512.000000) scale(0.100000,-0.100000)"
fill="#000000" stroke="none">
<path d="M2410 4644 c-405 -28 -730 -128 -995 -307 -122 -83 -304 -266 -384
-387 -118 -179 -208 -396 -250 -605 -97 -482 -31 -787 274 -1270 129 -204 147
-248 149 -365 1 -115 -13 -148 -100 -230 -102 -97 -124 -121 -130 -147 -17
-67 42 -114 164 -133 93 -15 206 -1 327 40 49 17 90 28 93 26 2 -3 -4 -20 -13
-40 -27 -55 -113 -129 -213 -180 -93 -48 -142 -92 -142 -126 0 -25 67 -76 140
-106 33 -13 104 -32 157 -41 82 -13 111 -14 185 -4 154 20 309 89 449 198 30
23 60 43 65 43 5 0 17 -36 26 -80 32 -156 114 -282 217 -332 36 -18 63 -23
126 -23 70 0 87 4 133 29 100 55 155 140 211 324 22 71 36 100 44 95 7 -4 40
-28 75 -54 149 -114 298 -180 455 -201 68 -9 99 -8 179 5 163 28 298 96 298
152 0 32 -54 77 -152 126 -94 47 -178 122 -209 186 -12 24 -19 46 -17 48 2 2
28 -7 58 -21 205 -96 471 -92 543 8 31 43 16 73 -89 175 -107 105 -133 150
-134 234 0 97 40 189 198 454 158 265 239 457 273 645 17 94 17 357 0 465 -79
500 -341 903 -741 1137 -215 126 -494 214 -785 247 -100 12 -400 21 -485 15z
m1288 -1288 c63 -32 96 -68 87 -95 -8 -26 -34 -27 -118 -4 -76 20 -87 28 -87
62 0 30 9 46 30 54 27 10 40 7 88 -17z m-2160 -38 c16 -16 15 -60 0 -80 -12
-15 -30 -19 -145 -35 -41 -5 -43 -4 -43 19 0 61 148 136 188 96z m465 -338
c116 -36 219 -132 268 -250 20 -46 23 -73 24 -171 0 -113 -1 -116 -37 -190
-47 -95 -112 -160 -207 -207 -74 -36 -77 -37 -190 -37 -131 1 -185 17 -273 82
-213 156 -226 516 -25 689 45 38 129 82 180 94 65 16 193 11 260 -10z m1316
-21 c117 -27 228 -117 279 -226 35 -77 43 -215 17 -294 -50 -153 -162 -251
-316 -279 -185 -34 -368 59 -447 228 -25 52 -27 68 -27 177 0 116 1 122 33
183 88 168 275 254 461 211z m-923 -1071 c30 -26 46 -33 95 -36 51 -4 68 0
137 33 98 46 122 43 122 -16 0 -108 -106 -184 -251 -183 -121 2 -209 71 -209
166 0 75 44 90 106 36z"/>
<path d="M1830 2791 c-19 -4 -57 -18 -83 -31 -45 -22 -47 -25 -25 -33 63 -23
79 -89 32 -126 -15 -12 -34 -21 -44 -21 -26 0 -68 37 -72 63 -3 19 -5 17 -21
-15 -42 -87 -41 -192 2 -276 31 -61 114 -129 179 -148 146 -43 293 21 364 156
33 64 33 205 0 267 -62 118 -208 190 -332 164z"/>
<path d="M3150 2787 c-25 -7 -58 -21 -75 -30 l-30 -16 27 -1 c29 0 68 -40 68
-70 0 -34 -39 -70 -75 -70 -40 0 -79 42 -71 75 11 44 -43 -39 -59 -93 -33
-103 -3 -224 75 -302 112 -112 306 -115 418 -7 129 123 126 332 -4 447 -73 64
-187 91 -274 67z"/>
</g>
</svg>
