<svg viewBox="0 0 256 256" xmlns="http://www.w3.org/2000/svg">
  <path d="M 87.384 112.913 C 85.120 113.941, 82.124 116.294, 80.726 118.141 C 79.328 119.989, 77.692 123.352, 77.090 125.615 C 76.488 127.878, 76.285 131.253, 76.639 133.115 C 76.992 134.977, 77.723 137.400, 78.263 138.500 C 78.803 139.600, 80.427 141.778, 81.872 143.339 C 83.317 144.901, 85.838 146.877, 87.474 147.731 C 89.110 148.585, 92.710 149.303, 95.474 149.326 C 98.774 149.355, 101.960 148.612, 104.749 147.165 C 107.086 145.953, 110.178 143.178, 111.620 140.999 C 113.062 138.819, 114.465 135.057, 114.737 132.637 C 115.010 130.217, 114.692 126.597, 114.031 124.593 C 113.369 122.589, 111.685 119.591, 110.288 117.931 C 108.891 116.271, 106.023 114.032, 103.914 112.956 C 101.805 111.880, 98.149 111.010, 95.790 111.022 C 93.430 111.034, 89.648 111.885, 87.384 112.913 M 150.500 113.502 C 148.300 114.280, 145.065 116.474, 143.310 118.378 C 141.556 120.282, 139.616 123.713, 138.999 126.003 C 138.382 128.294, 138.171 131.592, 138.530 133.334 C 138.889 135.075, 140.296 138.223, 141.658 140.329 C 143.151 142.640, 145.790 144.910, 148.316 146.057 C 150.617 147.101, 154.205 147.966, 156.290 147.978 C 158.374 147.990, 161.749 147.148, 163.790 146.106 C 165.830 145.065, 168.270 143.361, 169.212 142.320 C 170.153 141.279, 171.616 138.770, 172.462 136.746 C 173.308 134.721, 174 131.617, 174 129.848 C 174 128.079, 173.101 124.775, 172.003 122.506 C 170.904 120.237, 168.729 117.437, 167.169 116.283 C 165.609 115.130, 162.570 113.696, 160.416 113.098 C 158.262 112.500, 156.050 112.028, 155.500 112.049 C 154.950 112.071, 152.700 112.724, 150.500 113.502 M 91.094 121.089 C 88.852 121.985, 88.808 122.139, 90.453 123.342 C 91.423 124.051, 92.051 125.497, 91.847 126.555 C 91.644 127.612, 90.612 128.644, 89.555 128.847 C 88.497 129.051, 87.080 128.462, 86.405 127.540 C 85.286 126.008, 85.118 126.051, 84.489 128.034 C 84.110 129.228, 83.800 131.670, 83.800 133.459 C 83.800 135.248, 84.517 138.100, 85.394 139.796 C 86.271 141.491, 87.988 143.579, 89.210 144.434 C 90.432 145.290, 92.880 146.262, 94.650 146.594 C 96.421 146.926, 99.479 146.667, 101.446 146.018 C 103.413 145.369, 106.083 143.412, 107.380 141.669 C 108.676 139.926, 110.009 137.348, 110.340 135.939 C 110.672 134.531, 110.495 131.755, 109.947 129.771 C 109.394 127.769, 107.390 124.794, 105.441 123.082 C 102.663 120.643, 101.051 120.013, 97.715 120.063 C 95.397 120.098, 92.417 120.560, 91.094 121.089 M 150.500 120.963 C 148.664 121.718, 148.644 121.844, 150.250 122.500 C 151.213 122.893, 152 124.243, 152 125.500 C 152 126.757, 151.216 128.087, 150.259 128.454 C 149.117 128.892, 147.931 128.398, 146.816 127.021 C 145.133 124.943, 145.102 124.941, 144.057 126.894 C 143.476 127.980, 143 130.757, 143 133.066 C 143 135.532, 143.833 138.612, 145.019 140.531 C 146.234 142.497, 148.660 144.447, 151.110 145.427 C 153.730 146.476, 156.403 146.827, 158.608 146.414 C 160.492 146.060, 163.331 144.559, 164.917 143.078 C 166.502 141.597, 168.259 138.723, 168.819 136.692 C 169.478 134.307, 169.505 131.790, 168.895 129.582 C 168.376 127.703, 166.372 124.778, 164.441 123.082 C 161.658 120.639, 160.056 120.015, 156.715 120.070 C 154.397 120.109, 151.600 120.511, 150.500 120.963 M 173 96.402 C 173 97.173, 174.417 98.298, 176.149 98.902 C 177.881 99.506, 179.456 100, 179.649 100 C 179.842 100, 180 99.487, 180 98.860 C 180 98.233, 179.213 97.123, 178.250 96.392 C 177.287 95.661, 175.713 95.049, 174.750 95.032 C 173.787 95.014, 173 95.631, 173 96.402 M 75.861 98.967 C 74.209 100.343, 73.950 100.939, 75 100.953 C 75.825 100.964, 77.513 100.701, 78.750 100.370 C 79.987 100.038, 81 99.144, 81 98.383 C 81 97.623, 80.375 97, 79.611 97 C 78.847 97, 77.159 97.885, 75.861 98.967 M 92.174 121.059 C 90.057 121.908, 89.990 122.133, 91.424 123.567 C 92.291 124.434, 93 125.529, 93 126 C 93 126.471, 92.293 127.564, 91.429 128.429 C 90.564 129.293, 89.587 130, 89.257 130 C 88.927 130, 87.856 129.274, 86.876 128.388 C 85.215 126.884, 85.049 126.956, 84.425 129.442 C 84.057 130.909, 84.020 133.772, 84.343 135.804 C 84.737 138.278, 86.094 140.574, 88.451 142.750 C 91.469 145.537, 92.701 146, 97.103 146 C 101.731 146, 102.616 145.619, 106.118 142.118 C 109.444 138.791, 109.999 137.610, 109.996 133.868 C 109.994 131.253, 109.183 128.172, 107.974 126.190 C 106.864 124.369, 104.406 122.232, 102.510 121.440 C 100.615 120.648, 98.037 120.029, 96.782 120.063 C 95.527 120.098, 93.453 120.546, 92.174 121.059 M 151.675 120.704 C 149.922 121.157, 149.920 121.254, 151.632 123.146 C 152.992 124.649, 153.163 125.519, 152.351 126.809 C 151.765 127.739, 150.464 128.661, 149.459 128.859 C 148.454 129.056, 147.054 128.427, 146.348 127.461 C 145.164 125.842, 144.982 125.917, 144.032 128.417 C 143.464 129.909, 143.002 132.338, 143.004 133.815 C 143.006 135.292, 143.886 137.941, 144.960 139.701 C 146.033 141.462, 148.259 143.600, 149.906 144.451 C 151.553 145.303, 154.776 146, 157.068 146 C 160.575 146, 161.850 145.385, 165.118 142.118 C 168.444 138.791, 168.999 137.610, 168.996 133.868 C 168.994 131.253, 168.183 128.172, 166.974 126.190 C 165.864 124.369, 163.406 122.232, 161.510 121.440 C 159.615 120.648, 157.037 120.052, 155.782 120.116 C 154.527 120.180, 152.679 120.444, 151.675 120.704 M 115.599 159.734 C 115.270 160.064, 115 160.954, 115 161.712 C 115 162.470, 116.105 164.195, 117.455 165.545 C 119.353 167.443, 120.957 168, 124.531 168 C 128.336 168, 129.686 167.468, 132.159 164.995 C 133.811 163.343, 134.958 161.430, 134.707 160.745 C 134.456 160.060, 133.856 159.601, 133.375 159.724 C 132.894 159.847, 130.532 160.651, 128.128 161.511 C 124.016 162.981, 123.530 162.957, 119.977 161.105 C 117.898 160.022, 115.928 159.405, 115.599 159.734 M 104 38.560 C 100.425 39.330, 94.800 40.959, 91.500 42.178 C 88.200 43.398, 82.991 45.858, 79.925 47.643 C 76.859 49.429, 72.285 52.603, 69.761 54.695 C 67.236 56.788, 63.387 60.750, 61.207 63.500 C 59.026 66.250, 55.592 71.744, 53.574 75.709 C 51.556 79.674, 48.802 87.270, 47.453 92.588 C 45.782 99.173, 45 105.018, 45 110.918 C 45 115.682, 45.676 122.262, 46.503 125.540 C 47.329 128.818, 49.012 133.750, 50.242 136.500 C 51.471 139.250, 55.258 146.126, 58.656 151.780 C 62.054 157.433, 65.130 163.812, 65.492 165.955 C 65.895 168.339, 65.679 170.752, 64.936 172.175 C 64.267 173.454, 61.758 176.618, 59.360 179.207 C 56.962 181.796, 55 184.840, 55 185.972 C 55 187.220, 56.278 188.809, 58.250 190.011 C 60.466 191.362, 63.283 191.994, 67.101 191.996 C 70.181 191.998, 74.142 191.498, 75.902 190.884 C 77.662 190.271, 79.328 189.995, 79.604 190.271 C 79.881 190.547, 77.270 192.601, 73.803 194.834 C 70.337 197.068, 66.912 199.411, 66.193 200.041 C 65.474 200.671, 65.024 202.150, 65.193 203.328 C 65.384 204.659, 67.168 206.388, 69.904 207.895 C 73.021 209.611, 76.418 210.456, 81.525 210.783 C 86.635 211.111, 90.202 210.761, 93.742 209.586 C 96.492 208.672, 101.236 206.423, 104.284 204.588 L 109.825 201.252 110.424 204.449 C 110.754 206.208, 112.308 209.671, 113.877 212.145 C 115.532 214.755, 118.215 217.349, 120.266 218.322 C 122.211 219.245, 125.016 220, 126.500 220 C 127.984 220, 130.789 219.245, 132.734 218.322 C 134.768 217.357, 137.463 214.762, 139.079 212.214 C 140.624 209.778, 142.173 206.488, 142.521 204.904 C 142.869 203.319, 143.552 201.777, 144.038 201.477 C 144.524 201.176, 146.786 202.282, 149.066 203.933 C 151.345 205.584, 155.655 207.850, 158.643 208.968 C 161.987 210.219, 166.490 211, 170.359 211 C 173.816 211, 178.692 210.302, 181.195 209.449 C 183.699 208.596, 186.742 206.839, 187.959 205.543 C 189.786 203.599, 189.976 202.823, 189.050 201.093 C 188.433 199.940, 185.807 197.922, 183.214 196.607 C 180.621 195.292, 177.600 193.197, 176.500 191.951 L 174.500 189.686 177 190.455 C 178.375 190.878, 182.650 191.422, 186.500 191.664 C 192.310 192.029, 194.052 191.758, 196.750 190.067 C 198.888 188.726, 200 187.241, 200 185.723 C 200 184.311, 198.259 181.708, 195.513 179.013 C 193.045 176.591, 190.536 173.125, 189.937 171.310 C 189.002 168.477, 189.212 167.216, 191.421 162.391 C 192.836 159.301, 195.559 154.195, 197.472 151.046 C 199.385 147.898, 202.503 142.178, 204.402 138.335 C 206.301 134.493, 208.562 128.618, 209.427 125.280 C 210.314 121.857, 210.999 115.133, 210.997 109.856 C 210.996 103.023, 210.317 97.969, 208.480 91.113 C 207.097 85.951, 204.336 78.626, 202.344 74.836 C 200.353 71.045, 195.831 64.820, 192.296 61.002 C 188.761 57.184, 182.630 52.042, 178.672 49.575 C 174.714 47.108, 168.516 43.975, 164.898 42.614 C 161.281 41.252, 154.599 39.432, 150.050 38.569 C 144.581 37.531, 136.481 37.027, 126.140 37.079 C 116.800 37.127, 107.882 37.723, 104 38.560 M 173 96.402 C 173 97.173, 174.417 98.298, 176.149 98.902 C 177.881 99.506, 179.456 100, 179.649 100 C 179.842 100, 180 99.487, 180 98.860 C 180 98.233, 179.213 97.123, 178.250 96.392 C 177.287 95.661, 175.713 95.049, 174.750 95.032 C 173.787 95.014, 173 95.631, 173 96.402 M 75.861 98.967 C 74.209 100.343, 73.950 100.939, 75 100.953 C 75.825 100.964, 77.513 100.701, 78.750 100.370 C 79.987 100.038, 81 99.144, 81 98.383 C 81 97.623, 80.375 97, 79.611 97 C 78.847 97, 77.159 97.885, 75.861 98.967 M 87.384 112.913 C 85.120 113.941, 82.124 116.294, 80.726 118.141 C 79.328 119.989, 77.692 123.352, 77.090 125.615 C 76.488 127.878, 76.285 131.253, 76.639 133.115 C 76.992 134.977, 77.723 137.400, 78.263 138.500 C 78.803 139.600, 80.427 141.778, 81.872 143.339 C 83.317 144.901, 85.838 146.877, 87.474 147.731 C 89.110 148.585, 92.710 149.303, 95.474 149.326 C 98.774 149.355, 101.960 148.612, 104.749 147.165 C 107.086 145.953, 110.178 143.178, 111.620 140.999 C 113.062 138.819, 114.465 135.057, 114.737 132.637 C 115.010 130.217, 114.692 126.597, 114.031 124.593 C 113.369 122.589, 111.685 119.591, 110.288 117.931 C 108.891 116.271, 106.023 114.032, 103.914 112.956 C 101.805 111.880, 98.149 111.010, 95.790 111.022 C 93.430 111.034, 89.648 111.885, 87.384 112.913 M 150.500 113.502 C 148.300 114.280, 145.065 116.474, 143.310 118.378 C 141.556 120.282, 139.616 123.713, 138.999 126.003 C 138.382 128.294, 138.171 131.592, 138.530 133.334 C 138.889 135.075, 140.296 138.223, 141.658 140.329 C 143.151 142.640, 145.790 144.910, 148.316 146.057 C 150.617 147.101, 154.205 147.966, 156.290 147.978 C 158.374 147.990, 161.749 147.148, 163.790 146.106 C 165.830 145.065, 168.270 143.361, 169.212 142.320 C 170.153 141.279, 171.616 138.770, 172.462 136.746 C 173.308 134.721, 174 131.617, 174 129.848 C 174 128.079, 173.101 124.775, 172.003 122.506 C 170.904 120.237, 168.729 117.437, 167.169 116.283 C 165.609 115.130, 162.570 113.696, 160.416 113.098 C 158.262 112.500, 156.050 112.028, 155.500 112.049 C 154.950 112.071, 152.700 112.724, 150.500 113.502 M 152.079 125.583 C 152.127 126.748, 152.364 126.985, 152.683 126.188 C 152.972 125.466, 152.936 124.603, 152.604 124.271 C 152.272 123.939, 152.036 124.529, 152.079 125.583 M 110.079 133.583 C 110.127 134.748, 110.364 134.985, 110.683 134.188 C 110.972 133.466, 110.936 132.603, 110.604 132.271 C 110.272 131.939, 110.036 132.529, 110.079 133.583 M 87.500 143 C 88.495 144.100, 89.535 145, 89.810 145 C 90.085 145, 89.495 144.100, 88.500 143 C 87.505 141.900, 86.465 141, 86.190 141 C 85.915 141, 86.505 141.900, 87.500 143 M 105.405 143.250 L 103.500 145.500 105.750 143.595 C 106.987 142.547, 108 141.535, 108 141.345 C 108 141.155, 107.845 141, 107.655 141 C 107.465 141, 106.453 142.012, 105.405 143.250 M 164.872 142.750 C 163.629 144.336, 163.664 144.371, 165.250 143.128 C 166.213 142.373, 167 141.585, 167 141.378 C 167 141.170, 166.830 141, 166.622 141 C 166.415 141, 165.627 141.787, 164.872 142.750 M 95.250 146.689 C 96.213 146.941, 97.787 146.941, 98.750 146.689 C 99.713 146.438, 98.925 146.232, 97 146.232 C 95.075 146.232, 94.287 146.438, 95.250 146.689 M 154.750 146.662 C 155.438 146.940, 156.563 146.940, 157.250 146.662 C 157.938 146.385, 157.375 146.158, 156 146.158 C 154.625 146.158, 154.063 146.385, 154.750 146.662 M 115.599 159.734 C 115.270 160.064, 115 160.954, 115 161.712 C 115 162.470, 116.105 164.195, 117.455 165.545 C 119.353 167.443, 120.957 168, 124.531 168 C 128.336 168, 129.686 167.468, 132.159 164.995 C 133.811 163.343, 134.958 161.430, 134.707 160.745 C 134.456 160.060, 133.856 159.601, 133.375 159.724 C 132.894 159.847, 130.532 160.651, 128.128 161.511 C 124.016 162.981, 123.530 162.957, 119.977 161.105 C 117.898 160.022, 115.928 159.405, 115.599 159.734 " />
</svg>
